#!OML:ASF F:\VICON\USERDATA\INSTALL\rory3\rory3.ASF
:FULLY-SPECIFIED
:DEGREES
595
root 15.6735 17.9753 8.83877 -2.98839 3.63897 4.23782
lowerback 11.9271 1.75595 0.969989
upperback 1.27319 2.44175 -0.307772
thorax -5.29516 1.17871 -1.26513
lowerneck -16.12 -2.17767 -12.629
upperneck 37.3954 -1.06214 5.83319
head 16.2111 -1.38513 4.63186
rclavicle -2.45499e-014 -1.35174e-014
rhumerus -32.4642 -19.2321 -72.1262
rradius 33.8095
rwrist 3.05326
rhand -19.1623 8.12548
rfingers 7.12502
rthumb 7.14853 -21.7338
lclavicle -2.45499e-014 -1.35174e-014
lhumerus -37.1105 20.3906 72.8753
lradius 33.1247
lwrist -8.12642
lhand -22.0023 21.6448
lfingers 7.12502
lthumb 4.4065 51.579
rfemur -2.94374 -0.896264 15.8885
rtibia 28.3222
rfoot -17.9974 -1.02566
rtoes 2.37553
lfemur -8.29226 -0.372416 -11.2346
ltibia 34.9923
lfoot -8.55825 10.2693
ltoes 2.24777
596
root 15.7397 17.9978 8.83912 -2.9343 3.64829 4.15129
lowerback 11.8933 1.64866 1.05138
upperback 1.25212 2.31115 -0.284741
thorax -5.29972 1.11278 -1.26512
lowerneck -16.0715 -2.21533 -12.6803
upperneck 37.1954 -1.07917 5.74249
head 16.1008 -1.40561 4.58503
rclavicle 1.19271e-014 -7.15625e-015
rhumerus -32.3161 -18.8489 -72.2809
rradius 33.9422
rwrist 2.87212
rhand -19.1175 8.55206
rfingers 7.12502
rthumb 7.19177 -21.3057
lclavicle 1.19271e-014 -7.15625e-015
lhumerus -37.3392 20.7215 72.6701
lradius 32.85
lwrist -6.91883
lhand -22.8912 22.2115
lfingers 7.12502
lthumb 3.54812 52.1617
rfemur -2.8432 -0.935152 15.7714
rtibia 27.9977
rfoot -17.8066 -1.18022
rtoes 0.934358
lfemur -8.45742 -0.552552 -10.5148
ltibia 34.6059
lfoot -6.99751 10.2035
ltoes 2.26288
597
root 15.8162 17.9958 8.84155 -2.93871 3.55518 4.13306
lowerback 11.9706 1.59538 1.13895
upperback 1.18902 2.25295 -0.286782
thorax -5.40721 1.0806 -1.31128
lowerneck -15.9256 -2.27784 -12.7803
upperneck 37.0147 -1.15076 5.70061
head 15.9858 -1.45002 4.55953
rclavicle 5.81445e-015 6.36111e-015
rhumerus -32.3249 -18.4278 -72.357
rradius 34.1235
rwrist 2.7678
rhand -18.9671 8.61637
rfingers 7.12502
rthumb 7.33689 -21.2364
lclavicle 5.81445e-015 6.36111e-015
lhumerus -37.5947 20.7809 72.6587
lradius 32.7058
lwrist -5.107
lhand -24.6556 20.8076
lfingers 7.12502
lthumb 1.84422 50.7794
rfemur -2.66784 -0.89915 15.5332
rtibia 27.6432
rfoot -17.5541 -1.27692
rtoes -0.494327
lfemur -8.29955 -0.715403 -9.86747
ltibia 34.2096
lfoot -6.07649 9.87576
ltoes 2.8994
598
root 15.8925 17.9906 8.8419 -2.96175 3.50217 4.1312
lowerback 12.0307 1.57476 1.29435
upperback 1.20851 2.24096 -0.386464
thorax -5.41044 1.07031 -1.50283
lowerneck -16.0632 -2.38432 -12.8513
upperneck 36.9389 -1.32184 5.83397
head 16.0051 -1.51106 4.59927
rclavicle 3.17559e-014 -6.36111e-015
rhumerus -32.2397 -18.1921 -72.5756
rradius 34.3259
rwrist 2.66591
rhand -19.0241 8.17887
rfingers 7.12502
rthumb 7.28184 -21.6758
lclavicle 3.17559e-014 -6.36111e-015
lhumerus -37.5707 21.0065 72.4768
lradius 32.345
lwrist -3.97681
lhand -25.9179 19.036
lfingers 7.12502
lthumb 0.625061 49.0148
rfemur -2.47964 -0.824912 15.2682
rtibia 27.3321
rfoot -17.3615 -1.29887
rtoes -0.672572
lfemur -8.12497 -0.855129 -9.26753
ltibia 33.7792
lfoot -5.08372 9.47441
ltoes 2.24717
599
root 15.9658 18.0019 8.84174 -3.00752 3.45827 4.11184
lowerback 12.2017 1.55307 1.38837
upperback 1.18586 2.22387 -0.43932
thorax -5.52429 1.05753 -1.6149
lowerneck -16.3789 -2.44444 -12.8733
upperneck 37.0467 -1.36514 5.85174
head 16.1443 -1.53411 4.61283
rclavicle 3.57812e-014 -5.56597e-015
rhumerus -32.2123 -17.9287 -72.7257
rradius 34.4712
rwrist 2.72531
rhand -19.2168 8.15578
rfingers 7.12502
rthumb 7.09586 -21.7053
lclavicle 3.57812e-014 -5.56597e-015
lhumerus -37.6387 21.6889 72.0153
lradius 31.8296
lwrist -3.98508
lhand -25.4552 20.0058
lfingers 7.12502
lthumb 1.07196 49.9828
rfemur -2.30504 -0.629262 15.054
rtibia 27.1163
rfoot -17.251 -1.45497
rtoes -1.44546
lfemur -8.09185 -1.00979 -8.65886
ltibia 33.291
lfoot -3.93963 9.17586
ltoes 3.48891
600
root 16.0433 18.0147 8.84199 -2.962 3.44318 4.1599
lowerback 12.3784 1.51567 1.41582
upperback 1.02835 2.17843 -0.485723
thorax -5.78769 1.02933 -1.68128
lowerneck -16.3691 -2.43065 -12.8833
upperneck 37.0735 -1.32321 5.80058
head 16.1505 -1.52684 4.60011
rclavicle 1.86858e-014 -3.97569e-015
rhumerus -32.4097 -17.5365 -72.7535
rradius 34.6381
rwrist 2.80647
rhand -19.071 8.60443
rfingers 7.12502
rthumb 7.23658 -21.2518
lclavicle 1.86858e-014 -3.97569e-015
lhumerus -37.9988 22.4215 71.3743
lradius 31.3576
lwrist -4.42921
lhand -23.8023 22.1936
lfingers 7.12502
lthumb 2.66831 52.1566
rfemur -2.20253 -0.558801 14.7474
rtibia 26.8755
rfoot -17.1181 -1.59142
rtoes -2.84693
lfemur -8.12648 -1.20527 -8.1493
ltibia 32.7789
lfoot -3.17902 8.96268
ltoes 5.35787
601
root 16.1247 18.0156 8.8472 -2.90051 3.38232 4.2662
lowerback 12.2082 1.49417 1.38918
upperback 1.08777 2.14012 -0.546444
thorax -5.63016 1.01315 -1.71635
lowerneck -16.1813 -2.51844 -13.0309
upperneck 36.6415 -1.44206 5.80901
head 15.9052 -1.58025 4.58363
rclavicle 1.30701e-014 -4.77083e-015
rhumerus -32.297 -17.2526 -72.903
rradius 34.8164
rwrist 2.91932
rhand -18.8229 8.72102
rfingers 7.12502
rthumb 7.47614 -21.1269
lclavicle 1.30701e-014 -4.77083e-015
lhumerus -38.0632 23.0921 70.9579
lradius 30.9823
lwrist -4.60852
lhand -22.9767 23.377
lfingers 7.12502
lthumb 3.46557 53.3286
rfemur -2.12852 -0.45406 14.3558
rtibia 26.635
rfoot -17.0062 -1.6756
rtoes -3.87733
lfemur -7.91178 -1.39652 -7.7219
ltibia 32.1931
lfoot -2.9076 8.78081
ltoes 5.31821
602
root 16.2081 18.0171 8.85777 -2.92791 3.22317 4.38414
lowerback 11.9494 1.51659 1.37635
upperback 1.30673 2.15918 -0.630173
thorax -5.25191 1.02872 -1.78598
lowerneck -16.2557 -2.67517 -13.2799
upperneck 36.2791 -1.64341 5.95976
head 15.7753 -1.66502 4.64097
rclavicle -3.51849e-014 3.18055e-015
rhumerus -31.9086 -17.1746 -73.0959
rradius 34.7606
rwrist 3.14617
rhand -18.7776 8.90861
rfingers 7.12502
rthumb 7.51981 -20.9377
lclavicle -3.51849e-014 3.18055e-015
lhumerus -37.8524 23.5248 70.8024
lradius 30.7071
lwrist -4.12273
lhand -22.7896 23.4576
lfingers 7.12502
lthumb 3.64626 53.4062
rfemur -1.97187 -0.272019 13.9358
rtibia 26.4252
rfoot -16.9435 -1.70776
rtoes -4.52442
lfemur -7.50447 -1.5341 -7.34725
ltibia 31.5631
lfoot -2.75961 8.67243
ltoes 4.83429
603
root 16.2903 18.0258 8.86328 -2.8612 3.02934 4.53038
lowerback 11.9281 1.56555 1.24758
upperback 1.29753 2.2047 -0.670461
thorax -5.25121 1.05338 -1.76237
lowerneck -16.4417 -2.81311 -13.5697
upperneck 36.2817 -1.79812 6.15132
head 15.8518 -1.74449 4.75203
rclavicle 3.30976e-014 -2.22639e-014
rhumerus -31.8272 -16.7879 -73.158
rradius 34.7195
rwrist 3.2061
rhand -18.6493 8.98548
rfingers 7.12502
rthumb 7.64365 -20.8564
lclavicle 3.30976e-014 -2.22639e-014
lhumerus -37.9258 23.9398 70.6165
lradius 30.4981
lwrist -3.67914
lhand -22.1544 23.4874
lfingers 7.12502
lthumb 4.25963 53.4246
rfemur -1.91595 0.00941685 13.4705
rtibia 26.1919
rfoot -16.9517 -1.51946
rtoes -2.8772
lfemur -7.33204 -1.7534 -7.02512
ltibia 30.9265
lfoot -2.45849 8.77992
ltoes 5.32476
604
root 16.3717 18.0383 8.86564 -2.84689 2.93903 4.67815
lowerback 12.1003 1.54392 1.06227
upperback 1.19456 2.15221 -0.687092
thorax -5.46355 1.02796 -1.6755
lowerneck -16.4667 -2.83718 -13.6455
upperneck 36.2395 -1.79472 6.11925
head 15.8388 -1.7572 4.74932
rclavicle 1.12313e-014 -1.19271e-014
rhumerus -31.9564 -16.1542 -73.2098
rradius 34.8138
rwrist 3.246
rhand -18.3633 9.11339
rfingers 7.12502
rthumb 7.91975 -20.7182
lclavicle 1.12313e-014 -1.19271e-014
lhumerus -38.1647 24.3468 70.3972
lradius 30.3714
lwrist -3.19913
lhand -21.7335 23.8304
lfingers 7.12502
lthumb 4.66614 53.759
rfemur -1.79001 0.399275 13.0384
rtibia 25.9666
rfoot -16.8602 -1.53087
rtoes -0.847889
lfemur -7.10697 -2.04851 -6.72731
ltibia 30.2125
lfoot -1.85073 8.80597
ltoes 7.51046
605
root 16.4555 18.0518 8.87369 -2.90456 2.89214 4.89975
lowerback 12.196 1.53797 0.848046
upperback 1.19482 2.11241 -0.750655
thorax -5.52321 1.01183 -1.61829
lowerneck -16.4861 -2.84328 -13.5374
upperneck 36.1059 -1.78051 5.96313
head 15.772 -1.75256 4.65614
rclavicle 9.44227e-015 0
rhumerus -31.9682 -15.7649 -73.2855
rradius 34.8323
rwrist 3.27992
rhand -18.3161 9.34841
rfingers 7.12502
rthumb 7.96521 -20.4815
lclavicle 9.44227e-015 0
lhumerus -38.1936 24.5185 70.2893
lradius 30.1656
lwrist -2.63644
lhand -21.6305 24.0183
lfingers 7.12502
lthumb 4.76558 53.9447
rfemur -1.57922 0.622167 12.5236
rtibia 25.7926
rfoot -16.6622 -1.59783
rtoes -0.482469
lfemur -6.67147 -2.26339 -6.55549
ltibia 29.3923
lfoot -1.10888 8.59259
ltoes 8.45465
606
root 16.5457 18.042 8.87692 -2.95306 2.82838 4.9658
lowerback 12.2146 1.54947 0.848272
upperback 1.25068 2.1239 -0.816699
thorax -5.47176 1.01769 -1.68893
lowerneck -16.4709 -2.95085 -13.6291
upperneck 35.9178 -1.96005 6.07881
head 15.7027 -1.81806 4.68201
rclavicle 1.36167e-014 -8.74653e-015
rhumerus -31.8407 -15.5889 -73.3586
rradius 34.7026
rwrist 3.31359
rhand -18.332 9.61609
rfingers 7.12502
rthumb 7.9499 -20.2144
lclavicle 1.36167e-014 -8.74653e-015
lhumerus -38.1108 24.5297 70.2613
lradius 30.028
lwrist -2.26756
lhand -21.5568 24.0222
lfingers 7.12502
lthumb 4.83672 53.947
rfemur -1.42871 0.945351 12.1692
rtibia 25.6263
rfoot -16.4143 -1.73089
rtoes 0.0865963
lfemur -6.35382 -2.70297 -6.1937
ltibia 28.5379
lfoot -0.338027 8.38329
ltoes 5.5805
607
root 16.6382 18.0253 8.88029 -2.97719 2.76699 4.98268
lowerback 12.2047 1.56356 0.847452
upperback 1.29117 2.14011 -0.857061
thorax -5.42155 1.02608 -1.73216
lowerneck -16.4564 -3.12273 -13.9561
upperneck 35.7713 -2.26741 6.48806
head 15.6811 -1.93199 4.85931
rclavicle 5.86415e-015 1.59028e-015
rhumerus -31.7531 -15.3564 -73.4106
rradius 34.5609
rwrist 3.27432
rhand -18.4236 10.1922
rfingers 7.12502
rthumb 7.86147 -19.6416
lclavicle 5.86415e-015 1.59028e-015
lhumerus -38.0976 24.5408 70.2362
lradius 30.0224
lwrist -2.02811
lhand -21.381 24.0985
lfingers 7.12502
lthumb 5.00652 54.0194
rfemur -1.38365 1.17375 11.8646
rtibia 25.5219
rfoot -16.2493 -1.97749
rtoes -1.67745
lfemur -6.09267 -3.22556 -5.78922
ltibia 27.6675
lfoot 0.649631 8.21873
ltoes 4.4311
